/* XPM */
static char * butthelpdown_xpm[] = {
"14 19 19 1",
" 	c None",
".	c #FFFFFF",
"+	c #DBDBDB",
"@	c #DADADA",
"#	c #D9D9D9",
"$	c #D7D7D7",
"%	c #D6D6D6",
"&	c #D5D5D5",
"*	c #D4D4D4",
"=	c #D2D2D2",
"-	c #D1D1D1",
";	c #D0D0D0",
">	c #CFCFCF",
",	c #CECECE",
"'	c #CBCBCB",
")	c #CACACA",
"!	c #C9C9C9",
"~	c #C8C8C8",
"{	c #828282",
"..............",
"++++++++++++++",
"@@@@@@@@@@@@@@",
"####.....#####",
"$$$.......$$$$",
"%%%.......%%%%",
"&&&...&&...&&&",
"********...***",
"=======....===",
"-------...----",
";;;;;;...;;;;;",
">>>>>>...>>>>>",
",,,,,,,,,,,,,,",
"''''''...'''''",
"))))))...)))))",
"!!!!!!!!!!!!!!",
"!!!!!!!!!!!!!!",
"~~~~~~~~~~~~~~",
"{{{{{{{{{{{{{{"};
