/* XPM */
static char * titleseperator_xpm[] = {
"1 20 4 1",
" 	c None",
".	c #000000",
"+	c #BEBEBE",
"@	c #828282",
".",
"+",
"+",
"+",
"+",
"+",
"+",
"+",
"+",
"+",
"+",
"+",
"+",
"+",
"+",
"+",
"+",
"+",
"+",
"@"};
