/* XPM */
static char * miniwave_xpm[] = {
"16 16 2 1",
"  s None c None",
". c #000000",
"                ",
"                ",
"        .       ",
"       . .      ",
"       . .      ",
"    .  . .  .   ",
"   . . . . . .  ",
"   . . . . . .  ",
".. . . . . .  ..",
"  .  . . . .    ",
"     . . . .    ",
"     . . . .    ",
"      .   .     ",
"                ",
"                ",
"                "};
